<svg width="40" height="50" viewBox="0 0 30 40" fill="none" xmlns="http://www.w3.org/2000/svg">
<path d="M1 38.5C3.25071 32.0635 4.74785 28.9264 8.5 25.5M4 15.5L14 33L25.5 15.5C26.4277 12.401 26.5666 10.8195 25.5 8.5C23.9945 4.74889 22.844 2.84693 18.5 1H11C7.15578 2.82011 5.68802 4.51304 4 8.5C3.08769 10.7902 3.27987 12.4177 4 15.5Z" stroke="black"/>
<path d="M20 25C25.4985 28.6991 27.3422 31.3861 29 37L21.5 34.5L15 39L7.5 34.5L1 39" stroke="black"/>
<path d="M18 12C18 14.2091 16.2091 16 14 16C11.7909 16 10 14.2091 10 12C10 9.79086 11.7909 8 14 8C16.2091 8 18 9.79086 18 12ZM11.1303 12C11.1303 13.5849 12.4151 14.8697 14 14.8697C15.5849 14.8697 16.8697 13.5849 16.8697 12C16.8697 10.4151 15.5849 9.13026 14 9.13026C12.4151 9.13026 11.1303 10.4151 11.1303 12Z" fill="black"/>
</svg>
