<svg width="39" height="38" viewBox="0 0 39 38" fill="none" xmlns="http://www.w3.org/2000/svg">
<path d="M2.40705 6.50995C-3.74458 23.4553 15.0795 43.1253 32.1452 35.7784M10.8358 14.586C7.26404 22.5542 15.7098 28.6304 24.2139 28.2068M19.8489 13.167C23.7388 13.5983 24.9904 14.7619 25.2993 18.7162M19.9028 7.16722C28.0285 8.18601 30.6971 10.6037 31.799 18.7746M19.9568 1.16746C31.8964 4.27963 36.0822 7.93397 37.7988 18.8285" stroke="black"/>
<path d="M5.50308 2C2.61799 2.92892 1.94785 4.08858 2.00308 7L10.5027 15.0005C13.4187 14.7812 14.5203 14.0502 15.0027 11.0005L5.50308 2Z" stroke="black"/>
<path d="M27.0058 23.0005C24.1207 23.9294 23.4505 25.0891 23.5058 28.0005L32.0054 36.001C34.9214 35.7817 36.023 35.0507 36.5054 32.001L27.0058 23.0005Z" stroke="black"/>
</svg>
