<svg width="24" height="24" viewBox="0 0 29 29" fill="none" xmlns="http://www.w3.org/2000/svg">
<path d="M22.2119 5.65593C21.4488 5.99352 20.6395 6.2153 19.8109 6.31393C20.6839 5.79106 21.3372 4.96866 21.6489 3.99993C20.8289 4.48793 19.9299 4.82993 18.9939 5.01493C18.3645 4.34151 17.5302 3.89489 16.6208 3.74451C15.7114 3.59413 14.7778 3.74842 13.9651 4.18338C13.1525 4.61834 12.5063 5.30961 12.127 6.14972C11.7477 6.98983 11.6566 7.93171 11.8679 8.82893C10.2048 8.74572 8.57785 8.31365 7.09262 7.56079C5.60739 6.80793 4.29712 5.7511 3.24688 4.45893C2.87517 5.09738 2.67984 5.82315 2.68088 6.56193C2.68088 8.01193 3.41988 9.29293 4.54088 10.0429C3.8769 10.022 3.22753 9.84267 2.64688 9.51993V9.57093C2.64685 10.5368 2.98091 11.4729 3.59241 12.2206C4.20391 12.9682 5.05519 13.4814 6.00188 13.6729C5.38552 13.8401 4.73917 13.8648 4.11188 13.7449C4.3788 14.5763 4.89909 15.3034 5.59988 15.8243C6.30066 16.3453 7.14684 16.6339 8.01988 16.6499C7.15224 17.3314 6.15877 17.8351 5.09629 18.1323C4.03381 18.4295 2.92317 18.5143 1.82788 18.3819C3.7396 19.6113 5.96499 20.264 8.23788 20.2619C15.9319 20.2619 20.1379 13.8889 20.1379 8.36193C20.1379 8.18193 20.1339 7.99993 20.1259 7.82093C20.9443 7.22928 21.6507 6.49549 22.2119 5.65593Z" fill="black"/>
</svg>
